<?xml version="1.0" encoding="UTF-8" standalone="no"?>
<!DOCTYPE svg PUBLIC "-//W3C//DTD SVG 1.1//EN"
 "http://www.w3.org/Graphics/SVG/1.1/DTD/svg11.dtd">
<!-- Generated by graphviz version 2.43.0 (0)
 -->
<!-- Title: Workflow Pages: 1 -->
<svg width="220pt" height="622pt"
 viewBox="0.00 0.00 220.00 622.00" xmlns="http://www.w3.org/2000/svg" xmlns:xlink="http://www.w3.org/1999/xlink">
<g id="graph0" class="graph" transform="scale(1 1) rotate(0) translate(4 618)">
<title>Workflow</title>
<polygon fill="white" stroke="transparent" points="-4,4 -4,-618 216,-618 216,4 -4,4"/>
<!-- generator_agent -->
<g id="node1" class="node">
<title>generator_agent</title>
<polygon fill="lightgreen" stroke="black" points="167.5,-614 33.5,-614 33.5,-576 167.5,-576 167.5,-614"/>
<text text-anchor="middle" x="100.5" y="-598.8" font-family="Times,serif" font-size="14.00">generator_agent</text>
<text text-anchor="middle" x="100.5" y="-583.8" font-family="Times,serif" font-size="14.00">(Start)</text>
</g>
<!-- parse_generated_task -->
<g id="node2" class="node">
<title>parse_generated_task</title>
<polygon fill="lightblue" stroke="black" points="187,-540 14,-540 14,-504 187,-504 187,-540"/>
<text text-anchor="middle" x="100.5" y="-518.3" font-family="Times,serif" font-size="14.00">parse_generated_task</text>
</g>
<!-- generator_agent&#45;&gt;parse_generated_task -->
<g id="edge1" class="edge">
<title>generator_agent&#45;&gt;parse_generated_task</title>
<path fill="none" stroke="black" d="M100.5,-575.72C100.5,-567.97 100.5,-558.79 100.5,-550.27"/>
<polygon fill="black" stroke="black" points="100.5,-540 105,-550 100.5,-545 100.5,-550 100.5,-550 100.5,-550 100.5,-545 96,-550 100.5,-540 100.5,-540"/>
</g>
<!-- create_validation_request -->
<g id="node3" class="node">
<title>create_validation_request</title>
<polygon fill="lightblue" stroke="black" points="200.5,-468 0.5,-468 0.5,-432 200.5,-432 200.5,-468"/>
<text text-anchor="middle" x="100.5" y="-446.3" font-family="Times,serif" font-size="14.00">create_validation_request</text>
</g>
<!-- parse_generated_task&#45;&gt;create_validation_request -->
<g id="edge2" class="edge">
<title>parse_generated_task&#45;&gt;create_validation_request</title>
<path fill="none" stroke="black" d="M100.5,-503.7C100.5,-495.98 100.5,-486.71 100.5,-478.11"/>
<polygon fill="black" stroke="black" points="100.5,-468.1 105,-478.1 100.5,-473.1 100.5,-478.1 100.5,-478.1 100.5,-478.1 100.5,-473.1 96,-478.1 100.5,-468.1 100.5,-468.1"/>
</g>
<!-- validator_agent -->
<g id="node4" class="node">
<title>validator_agent</title>
<polygon fill="lightblue" stroke="black" points="164.5,-396 36.5,-396 36.5,-360 164.5,-360 164.5,-396"/>
<text text-anchor="middle" x="100.5" y="-374.3" font-family="Times,serif" font-size="14.00">validator_agent</text>
</g>
<!-- create_validation_request&#45;&gt;validator_agent -->
<g id="edge3" class="edge">
<title>create_validation_request&#45;&gt;validator_agent</title>
<path fill="none" stroke="black" d="M100.5,-431.7C100.5,-423.98 100.5,-414.71 100.5,-406.11"/>
<polygon fill="black" stroke="black" points="100.5,-396.1 105,-406.1 100.5,-401.1 100.5,-406.1 100.5,-406.1 100.5,-406.1 100.5,-401.1 96,-406.1 100.5,-396.1 100.5,-396.1"/>
</g>
<!-- parse_validation_result -->
<g id="node5" class="node">
<title>parse_validation_result</title>
<polygon fill="lightblue" stroke="black" points="191.5,-324 9.5,-324 9.5,-288 191.5,-288 191.5,-324"/>
<text text-anchor="middle" x="100.5" y="-302.3" font-family="Times,serif" font-size="14.00">parse_validation_result</text>
</g>
<!-- validator_agent&#45;&gt;parse_validation_result -->
<g id="edge4" class="edge">
<title>validator_agent&#45;&gt;parse_validation_result</title>
<path fill="none" stroke="black" d="M100.5,-359.7C100.5,-351.98 100.5,-342.71 100.5,-334.11"/>
<polygon fill="black" stroke="black" points="100.5,-324.1 105,-334.1 100.5,-329.1 100.5,-334.1 100.5,-334.1 100.5,-334.1 100.5,-329.1 96,-334.1 100.5,-324.1 100.5,-324.1"/>
</g>
<!-- create_pytest_request -->
<g id="node6" class="node">
<title>create_pytest_request</title>
<polygon fill="lightblue" stroke="black" points="188,-252 13,-252 13,-216 188,-216 188,-252"/>
<text text-anchor="middle" x="100.5" y="-230.3" font-family="Times,serif" font-size="14.00">create_pytest_request</text>
</g>
<!-- parse_validation_result&#45;&gt;create_pytest_request -->
<g id="edge5" class="edge">
<title>parse_validation_result&#45;&gt;create_pytest_request</title>
<path fill="none" stroke="black" d="M100.5,-287.7C100.5,-279.98 100.5,-270.71 100.5,-262.11"/>
<polygon fill="black" stroke="black" points="100.5,-252.1 105,-262.1 100.5,-257.1 100.5,-262.1 100.5,-262.1 100.5,-262.1 100.5,-257.1 96,-262.1 100.5,-252.1 100.5,-252.1"/>
</g>
<!-- pytest_agent -->
<g id="node7" class="node">
<title>pytest_agent</title>
<polygon fill="lightblue" stroke="black" points="155,-180 46,-180 46,-144 155,-144 155,-180"/>
<text text-anchor="middle" x="100.5" y="-158.3" font-family="Times,serif" font-size="14.00">pytest_agent</text>
</g>
<!-- create_pytest_request&#45;&gt;pytest_agent -->
<g id="edge6" class="edge">
<title>create_pytest_request&#45;&gt;pytest_agent</title>
<path fill="none" stroke="black" d="M100.5,-215.7C100.5,-207.98 100.5,-198.71 100.5,-190.11"/>
<polygon fill="black" stroke="black" points="100.5,-180.1 105,-190.1 100.5,-185.1 100.5,-190.1 100.5,-190.1 100.5,-190.1 100.5,-185.1 96,-190.1 100.5,-180.1 100.5,-180.1"/>
</g>
<!-- parse_tests_and_decide -->
<g id="node8" class="node">
<title>parse_tests_and_decide</title>
<polygon fill="lightblue" stroke="black" points="193,-108 8,-108 8,-72 193,-72 193,-108"/>
<text text-anchor="middle" x="100.5" y="-86.3" font-family="Times,serif" font-size="14.00">parse_tests_and_decide</text>
</g>
<!-- pytest_agent&#45;&gt;parse_tests_and_decide -->
<g id="edge7" class="edge">
<title>pytest_agent&#45;&gt;parse_tests_and_decide</title>
<path fill="none" stroke="black" d="M100.5,-143.7C100.5,-135.98 100.5,-126.71 100.5,-118.11"/>
<polygon fill="black" stroke="black" points="100.5,-108.1 105,-118.1 100.5,-113.1 100.5,-118.1 100.5,-118.1 100.5,-118.1 100.5,-113.1 96,-118.1 100.5,-108.1 100.5,-108.1"/>
</g>
<!-- keep_task -->
<g id="node9" class="node">
<title>keep_task</title>
<polygon fill="lightblue" stroke="black" points="87,-36 0,-36 0,0 87,0 87,-36"/>
<text text-anchor="middle" x="43.5" y="-14.3" font-family="Times,serif" font-size="14.00">keep_task</text>
</g>
<!-- parse_tests_and_decide&#45;&gt;keep_task -->
<g id="edge8" class="edge">
<title>parse_tests_and_decide&#45;&gt;keep_task</title>
<path fill="none" stroke="black" d="M86.41,-71.7C79.58,-63.3 71.24,-53.07 63.74,-43.86"/>
<polygon fill="black" stroke="black" points="57.43,-36.1 67.23,-41.02 60.58,-39.98 63.74,-43.86 63.74,-43.86 63.74,-43.86 60.58,-39.98 60.25,-46.7 57.43,-36.1 57.43,-36.1"/>
</g>
<!-- remove_task -->
<g id="node10" class="node">
<title>remove_task</title>
<polygon fill="lightblue" stroke="black" points="212,-36 105,-36 105,0 212,0 212,-36"/>
<text text-anchor="middle" x="158.5" y="-14.3" font-family="Times,serif" font-size="14.00">remove_task</text>
</g>
<!-- parse_tests_and_decide&#45;&gt;remove_task -->
<g id="edge9" class="edge">
<title>parse_tests_and_decide&#45;&gt;remove_task</title>
<path fill="none" stroke="black" d="M114.84,-71.7C121.79,-63.3 130.27,-53.07 137.9,-43.86"/>
<polygon fill="black" stroke="black" points="144.33,-36.1 141.41,-46.68 141.14,-39.95 137.95,-43.8 137.95,-43.8 137.95,-43.8 141.14,-39.95 134.48,-40.93 144.33,-36.1 144.33,-36.1"/>
</g>
</g>
</svg>
