<?xml version="1.0" encoding="UTF-8" standalone="no"?>
<!DOCTYPE svg PUBLIC "-//W3C//DTD SVG 1.1//EN"
 "http://www.w3.org/Graphics/SVG/1.1/DTD/svg11.dtd">
<!-- Generated by graphviz version 2.43.0 (0)
 -->
<!-- Title: Workflow Pages: 1 -->
<svg width="340pt" height="766pt"
 viewBox="0.00 0.00 340.00 766.00" xmlns="http://www.w3.org/2000/svg" xmlns:xlink="http://www.w3.org/1999/xlink">
<g id="graph0" class="graph" transform="scale(1 1) rotate(0) translate(4 762)">
<title>Workflow</title>
<polygon fill="white" stroke="transparent" points="-4,4 -4,-762 336,-762 336,4 -4,4"/>
<!-- generator_agent -->
<g id="node1" class="node">
<title>generator_agent</title>
<polygon fill="lightgreen" stroke="black" points="266.5,-758 132.5,-758 132.5,-720 266.5,-720 266.5,-758"/>
<text text-anchor="middle" x="199.5" y="-742.8" font-family="Times,serif" font-size="14.00">generator_agent</text>
<text text-anchor="middle" x="199.5" y="-727.8" font-family="Times,serif" font-size="14.00">(Start)</text>
</g>
<!-- parse_generated_task -->
<g id="node2" class="node">
<title>parse_generated_task</title>
<polygon fill="lightblue" stroke="black" points="229,-684 56,-684 56,-648 229,-648 229,-684"/>
<text text-anchor="middle" x="142.5" y="-662.3" font-family="Times,serif" font-size="14.00">parse_generated_task</text>
</g>
<!-- generator_agent&#45;&gt;parse_generated_task -->
<g id="edge1" class="edge">
<title>generator_agent&#45;&gt;parse_generated_task</title>
<path fill="none" stroke="black" d="M184.82,-719.72C178.05,-711.29 169.91,-701.15 162.59,-692.02"/>
<polygon fill="black" stroke="black" points="156.15,-684 165.92,-688.98 159.28,-687.9 162.41,-691.8 162.41,-691.8 162.41,-691.8 159.28,-687.9 158.9,-694.62 156.15,-684 156.15,-684"/>
</g>
<!-- create_validation_request -->
<g id="node3" class="node">
<title>create_validation_request</title>
<polygon fill="lightblue" stroke="black" points="235.5,-612 35.5,-612 35.5,-576 235.5,-576 235.5,-612"/>
<text text-anchor="middle" x="135.5" y="-590.3" font-family="Times,serif" font-size="14.00">create_validation_request</text>
</g>
<!-- parse_generated_task&#45;&gt;create_validation_request -->
<g id="edge2" class="edge">
<title>parse_generated_task&#45;&gt;create_validation_request</title>
<path fill="none" stroke="black" d="M140.77,-647.7C140,-639.98 139.07,-630.71 138.21,-622.11"/>
<polygon fill="black" stroke="black" points="137.21,-612.1 142.68,-621.61 137.71,-617.08 138.21,-622.05 138.21,-622.05 138.21,-622.05 137.71,-617.08 133.73,-622.5 137.21,-612.1 137.21,-612.1"/>
</g>
<!-- validator_agent -->
<g id="node4" class="node">
<title>validator_agent</title>
<polygon fill="lightblue" stroke="black" points="199.5,-540 71.5,-540 71.5,-504 199.5,-504 199.5,-540"/>
<text text-anchor="middle" x="135.5" y="-518.3" font-family="Times,serif" font-size="14.00">validator_agent</text>
</g>
<!-- create_validation_request&#45;&gt;validator_agent -->
<g id="edge3" class="edge">
<title>create_validation_request&#45;&gt;validator_agent</title>
<path fill="none" stroke="black" d="M135.5,-575.7C135.5,-567.98 135.5,-558.71 135.5,-550.11"/>
<polygon fill="black" stroke="black" points="135.5,-540.1 140,-550.1 135.5,-545.1 135.5,-550.1 135.5,-550.1 135.5,-550.1 135.5,-545.1 131,-550.1 135.5,-540.1 135.5,-540.1"/>
</g>
<!-- parse_validation_result -->
<g id="node5" class="node">
<title>parse_validation_result</title>
<polygon fill="lightblue" stroke="black" points="226.5,-468 44.5,-468 44.5,-432 226.5,-432 226.5,-468"/>
<text text-anchor="middle" x="135.5" y="-446.3" font-family="Times,serif" font-size="14.00">parse_validation_result</text>
</g>
<!-- validator_agent&#45;&gt;parse_validation_result -->
<g id="edge4" class="edge">
<title>validator_agent&#45;&gt;parse_validation_result</title>
<path fill="none" stroke="black" d="M135.5,-503.7C135.5,-495.98 135.5,-486.71 135.5,-478.11"/>
<polygon fill="black" stroke="black" points="135.5,-468.1 140,-478.1 135.5,-473.1 135.5,-478.1 135.5,-478.1 135.5,-478.1 135.5,-473.1 131,-478.1 135.5,-468.1 135.5,-468.1"/>
</g>
<!-- create_pytest_request -->
<g id="node6" class="node">
<title>create_pytest_request</title>
<polygon fill="lightblue" stroke="black" points="223,-396 48,-396 48,-360 223,-360 223,-396"/>
<text text-anchor="middle" x="135.5" y="-374.3" font-family="Times,serif" font-size="14.00">create_pytest_request</text>
</g>
<!-- parse_validation_result&#45;&gt;create_pytest_request -->
<g id="edge5" class="edge">
<title>parse_validation_result&#45;&gt;create_pytest_request</title>
<path fill="none" stroke="black" d="M135.5,-431.7C135.5,-423.98 135.5,-414.71 135.5,-406.11"/>
<polygon fill="black" stroke="black" points="135.5,-396.1 140,-406.1 135.5,-401.1 135.5,-406.1 135.5,-406.1 135.5,-406.1 135.5,-401.1 131,-406.1 135.5,-396.1 135.5,-396.1"/>
</g>
<!-- pytest_agent -->
<g id="node7" class="node">
<title>pytest_agent</title>
<polygon fill="lightblue" stroke="black" points="190,-324 81,-324 81,-288 190,-288 190,-324"/>
<text text-anchor="middle" x="135.5" y="-302.3" font-family="Times,serif" font-size="14.00">pytest_agent</text>
</g>
<!-- create_pytest_request&#45;&gt;pytest_agent -->
<g id="edge6" class="edge">
<title>create_pytest_request&#45;&gt;pytest_agent</title>
<path fill="none" stroke="black" d="M135.5,-359.7C135.5,-351.98 135.5,-342.71 135.5,-334.11"/>
<polygon fill="black" stroke="black" points="135.5,-324.1 140,-334.1 135.5,-329.1 135.5,-334.1 135.5,-334.1 135.5,-334.1 135.5,-329.1 131,-334.1 135.5,-324.1 135.5,-324.1"/>
</g>
<!-- parse_tests_and_decide -->
<g id="node8" class="node">
<title>parse_tests_and_decide</title>
<polygon fill="lightblue" stroke="black" points="228,-252 43,-252 43,-216 228,-216 228,-252"/>
<text text-anchor="middle" x="135.5" y="-230.3" font-family="Times,serif" font-size="14.00">parse_tests_and_decide</text>
</g>
<!-- pytest_agent&#45;&gt;parse_tests_and_decide -->
<g id="edge7" class="edge">
<title>pytest_agent&#45;&gt;parse_tests_and_decide</title>
<path fill="none" stroke="black" d="M135.5,-287.7C135.5,-279.98 135.5,-270.71 135.5,-262.11"/>
<polygon fill="black" stroke="black" points="135.5,-252.1 140,-262.1 135.5,-257.1 135.5,-262.1 135.5,-262.1 135.5,-262.1 135.5,-257.1 131,-262.1 135.5,-252.1 135.5,-252.1"/>
</g>
<!-- keep_task -->
<g id="node9" class="node">
<title>keep_task</title>
<polygon fill="lightblue" stroke="black" points="87,-180 0,-180 0,-144 87,-144 87,-180"/>
<text text-anchor="middle" x="43.5" y="-158.3" font-family="Times,serif" font-size="14.00">keep_task</text>
</g>
<!-- parse_tests_and_decide&#45;&gt;keep_task -->
<g id="edge8" class="edge">
<title>parse_tests_and_decide&#45;&gt;keep_task</title>
<path fill="none" stroke="black" d="M112.76,-215.7C101.06,-206.8 86.64,-195.82 73.99,-186.2"/>
<polygon fill="black" stroke="black" points="65.98,-180.1 76.66,-182.58 69.96,-183.13 73.94,-186.16 73.94,-186.16 73.94,-186.16 69.96,-183.13 71.21,-189.74 65.98,-180.1 65.98,-180.1"/>
</g>
<!-- remove_task -->
<g id="node10" class="node">
<title>remove_task</title>
<polygon fill="lightblue" stroke="black" points="212,-180 105,-180 105,-144 212,-144 212,-180"/>
<text text-anchor="middle" x="158.5" y="-158.3" font-family="Times,serif" font-size="14.00">remove_task</text>
</g>
<!-- parse_tests_and_decide&#45;&gt;remove_task -->
<g id="edge9" class="edge">
<title>parse_tests_and_decide&#45;&gt;remove_task</title>
<path fill="none" stroke="black" d="M141.19,-215.7C143.75,-207.9 146.83,-198.51 149.68,-189.83"/>
<polygon fill="black" stroke="black" points="152.88,-180.1 154.03,-191.01 151.32,-184.85 149.76,-189.6 149.76,-189.6 149.76,-189.6 151.32,-184.85 145.48,-188.2 152.88,-180.1 152.88,-180.1"/>
</g>
<!-- check_loop -->
<g id="node11" class="node">
<title>check_loop</title>
<polygon fill="lightblue" stroke="black" points="176.5,-108 82.5,-108 82.5,-72 176.5,-72 176.5,-108"/>
<text text-anchor="middle" x="129.5" y="-86.3" font-family="Times,serif" font-size="14.00">check_loop</text>
</g>
<!-- keep_task&#45;&gt;check_loop -->
<g id="edge10" class="edge">
<title>keep_task&#45;&gt;check_loop</title>
<path fill="none" stroke="black" d="M64.76,-143.7C75.59,-134.88 88.92,-124.03 100.66,-114.47"/>
<polygon fill="black" stroke="black" points="108.49,-108.1 103.57,-117.91 104.61,-111.26 100.73,-114.42 100.73,-114.42 100.73,-114.42 104.61,-111.26 97.89,-110.93 108.49,-108.1 108.49,-108.1"/>
</g>
<!-- remove_task&#45;&gt;check_loop -->
<g id="edge11" class="edge">
<title>remove_task&#45;&gt;check_loop</title>
<path fill="none" stroke="black" d="M151.33,-143.7C148.07,-135.81 144.13,-126.3 140.5,-117.55"/>
<polygon fill="black" stroke="black" points="136.59,-108.1 144.57,-115.62 138.5,-112.72 140.41,-117.34 140.41,-117.34 140.41,-117.34 138.5,-112.72 136.26,-119.07 136.59,-108.1 136.59,-108.1"/>
</g>
<!-- retry_generation -->
<g id="node12" class="node">
<title>retry_generation</title>
<polygon fill="lightblue" stroke="black" points="332,-36 195,-36 195,0 332,0 332,-36"/>
<text text-anchor="middle" x="263.5" y="-14.3" font-family="Times,serif" font-size="14.00">retry_generation</text>
</g>
<!-- check_loop&#45;&gt;retry_generation -->
<g id="edge12" class="edge">
<title>check_loop&#45;&gt;retry_generation</title>
<path fill="none" stroke="black" d="M162.28,-71.88C180.13,-62.55 202.4,-50.92 221.5,-40.94"/>
<polygon fill="black" stroke="black" points="230.59,-36.19 223.81,-44.81 226.16,-38.5 221.73,-40.82 221.73,-40.82 221.73,-40.82 226.16,-38.5 219.65,-36.83 230.59,-36.19 230.59,-36.19"/>
</g>
<!-- complete_workflow -->
<g id="node13" class="node">
<title>complete_workflow</title>
<polygon fill="lightblue" stroke="black" points="177,-36 24,-36 24,0 177,0 177,-36"/>
<text text-anchor="middle" x="100.5" y="-14.3" font-family="Times,serif" font-size="14.00">complete_workflow</text>
</g>
<!-- check_loop&#45;&gt;complete_workflow -->
<g id="edge13" class="edge">
<title>check_loop&#45;&gt;complete_workflow</title>
<path fill="none" stroke="black" d="M122.33,-71.7C119.07,-63.81 115.13,-54.3 111.5,-45.55"/>
<polygon fill="black" stroke="black" points="107.59,-36.1 115.57,-43.62 109.5,-40.72 111.41,-45.34 111.41,-45.34 111.41,-45.34 109.5,-40.72 107.26,-47.07 107.59,-36.1 107.59,-36.1"/>
</g>
<!-- retry_generation&#45;&gt;generator_agent -->
<g id="edge14" class="edge">
<title>retry_generation&#45;&gt;generator_agent</title>
<path fill="none" stroke="black" d="M263.5,-36.05C263.5,-62.71 263.5,-115.89 263.5,-161 263.5,-595 263.5,-595 263.5,-595 263.5,-636.21 255.38,-646.87 237.5,-684 232.88,-693.61 226.6,-703.36 220.47,-711.88"/>
<polygon fill="black" stroke="black" points="214.47,-719.95 216.83,-709.24 217.46,-715.94 220.44,-711.93 220.44,-711.93 220.44,-711.93 217.46,-715.94 224.05,-714.61 214.47,-719.95 214.47,-719.95"/>
</g>
</g>
</svg>
