<?xml version="1.0" encoding="UTF-8" standalone="no"?>
<!DOCTYPE svg PUBLIC "-//W3C//DTD SVG 1.1//EN"
 "http://www.w3.org/Graphics/SVG/1.1/DTD/svg11.dtd">
<!-- Generated by graphviz version 2.43.0 (0)
 -->
<!-- Title: Workflow Pages: 1 -->
<svg width="333pt" height="550pt"
 viewBox="0.00 0.00 333.00 550.00" xmlns="http://www.w3.org/2000/svg" xmlns:xlink="http://www.w3.org/1999/xlink">
<g id="graph0" class="graph" transform="scale(1 1) rotate(0) translate(4 546)">
<title>Workflow</title>
<polygon fill="white" stroke="transparent" points="-4,4 -4,-546 329,-546 329,4 -4,4"/>
<!-- generator_agent -->
<g id="node1" class="node">
<title>generator_agent</title>
<polygon fill="lightgreen" stroke="black" points="265.5,-542 131.5,-542 131.5,-504 265.5,-504 265.5,-542"/>
<text text-anchor="middle" x="198.5" y="-526.8" font-family="Times,serif" font-size="14.00">generator_agent</text>
<text text-anchor="middle" x="198.5" y="-511.8" font-family="Times,serif" font-size="14.00">(Start)</text>
</g>
<!-- parse_generated_task -->
<g id="node2" class="node">
<title>parse_generated_task</title>
<polygon fill="lightblue" stroke="black" points="228,-468 55,-468 55,-432 228,-432 228,-468"/>
<text text-anchor="middle" x="141.5" y="-446.3" font-family="Times,serif" font-size="14.00">parse_generated_task</text>
</g>
<!-- generator_agent&#45;&gt;parse_generated_task -->
<g id="edge1" class="edge">
<title>generator_agent&#45;&gt;parse_generated_task</title>
<path fill="none" stroke="black" d="M183.82,-503.72C177.05,-495.29 168.91,-485.15 161.59,-476.02"/>
<polygon fill="black" stroke="black" points="155.15,-468 164.92,-472.98 158.28,-471.9 161.41,-475.8 161.41,-475.8 161.41,-475.8 158.28,-471.9 157.9,-478.62 155.15,-468 155.15,-468"/>
</g>
<!-- run_validation -->
<g id="node3" class="node">
<title>run_validation</title>
<polygon fill="lightblue" stroke="black" points="201,-396 82,-396 82,-360 201,-360 201,-396"/>
<text text-anchor="middle" x="141.5" y="-374.3" font-family="Times,serif" font-size="14.00">run_validation</text>
</g>
<!-- parse_generated_task&#45;&gt;run_validation -->
<g id="edge2" class="edge">
<title>parse_generated_task&#45;&gt;run_validation</title>
<path fill="none" stroke="black" d="M141.5,-431.7C141.5,-423.98 141.5,-414.71 141.5,-406.11"/>
<polygon fill="black" stroke="black" points="141.5,-396.1 146,-406.1 141.5,-401.1 141.5,-406.1 141.5,-406.1 141.5,-406.1 141.5,-401.1 137,-406.1 141.5,-396.1 141.5,-396.1"/>
</g>
<!-- run_pytest -->
<g id="node4" class="node">
<title>run_pytest</title>
<polygon fill="lightblue" stroke="black" points="188,-324 95,-324 95,-288 188,-288 188,-324"/>
<text text-anchor="middle" x="141.5" y="-302.3" font-family="Times,serif" font-size="14.00">run_pytest</text>
</g>
<!-- run_validation&#45;&gt;run_pytest -->
<g id="edge3" class="edge">
<title>run_validation&#45;&gt;run_pytest</title>
<path fill="none" stroke="black" d="M141.5,-359.7C141.5,-351.98 141.5,-342.71 141.5,-334.11"/>
<polygon fill="black" stroke="black" points="141.5,-324.1 146,-334.1 141.5,-329.1 141.5,-334.1 141.5,-334.1 141.5,-334.1 141.5,-329.1 137,-334.1 141.5,-324.1 141.5,-324.1"/>
</g>
<!-- make_decision -->
<g id="node5" class="node">
<title>make_decision</title>
<polygon fill="lightblue" stroke="black" points="201.5,-252 81.5,-252 81.5,-216 201.5,-216 201.5,-252"/>
<text text-anchor="middle" x="141.5" y="-230.3" font-family="Times,serif" font-size="14.00">make_decision</text>
</g>
<!-- run_pytest&#45;&gt;make_decision -->
<g id="edge4" class="edge">
<title>run_pytest&#45;&gt;make_decision</title>
<path fill="none" stroke="black" d="M141.5,-287.7C141.5,-279.98 141.5,-270.71 141.5,-262.11"/>
<polygon fill="black" stroke="black" points="141.5,-252.1 146,-262.1 141.5,-257.1 141.5,-262.1 141.5,-262.1 141.5,-262.1 141.5,-257.1 137,-262.1 141.5,-252.1 141.5,-252.1"/>
</g>
<!-- keep_task -->
<g id="node6" class="node">
<title>keep_task</title>
<polygon fill="lightblue" stroke="black" points="87,-180 0,-180 0,-144 87,-144 87,-180"/>
<text text-anchor="middle" x="43.5" y="-158.3" font-family="Times,serif" font-size="14.00">keep_task</text>
</g>
<!-- make_decision&#45;&gt;keep_task -->
<g id="edge5" class="edge">
<title>make_decision&#45;&gt;keep_task</title>
<path fill="none" stroke="black" d="M117.53,-215.88C104.95,-206.89 89.37,-195.76 75.75,-186.03"/>
<polygon fill="black" stroke="black" points="67.57,-180.19 78.32,-182.34 71.63,-183.1 75.7,-186 75.7,-186 75.7,-186 71.63,-183.1 73.09,-189.66 67.57,-180.19 67.57,-180.19"/>
</g>
<!-- remove_task -->
<g id="node7" class="node">
<title>remove_task</title>
<polygon fill="lightblue" stroke="black" points="212,-180 105,-180 105,-144 212,-144 212,-180"/>
<text text-anchor="middle" x="158.5" y="-158.3" font-family="Times,serif" font-size="14.00">remove_task</text>
</g>
<!-- make_decision&#45;&gt;remove_task -->
<g id="edge6" class="edge">
<title>make_decision&#45;&gt;remove_task</title>
<path fill="none" stroke="black" d="M145.7,-215.7C147.6,-207.9 149.88,-198.51 151.98,-189.83"/>
<polygon fill="black" stroke="black" points="154.35,-180.1 156.36,-190.88 153.17,-184.96 151.99,-189.82 151.99,-189.82 151.99,-189.82 153.17,-184.96 147.61,-188.76 154.35,-180.1 154.35,-180.1"/>
</g>
<!-- check_loop -->
<g id="node8" class="node">
<title>check_loop</title>
<polygon fill="lightblue" stroke="black" points="172.5,-108 78.5,-108 78.5,-72 172.5,-72 172.5,-108"/>
<text text-anchor="middle" x="125.5" y="-86.3" font-family="Times,serif" font-size="14.00">check_loop</text>
</g>
<!-- keep_task&#45;&gt;check_loop -->
<g id="edge7" class="edge">
<title>keep_task&#45;&gt;check_loop</title>
<path fill="none" stroke="black" d="M63.77,-143.7C74,-134.97 86.56,-124.24 97.68,-114.75"/>
<polygon fill="black" stroke="black" points="105.46,-108.1 100.78,-118.02 101.66,-111.35 97.86,-114.6 97.86,-114.6 97.86,-114.6 101.66,-111.35 94.94,-111.17 105.46,-108.1 105.46,-108.1"/>
</g>
<!-- remove_task&#45;&gt;check_loop -->
<g id="edge8" class="edge">
<title>remove_task&#45;&gt;check_loop</title>
<path fill="none" stroke="black" d="M150.34,-143.7C146.59,-135.73 142.05,-126.1 137.88,-117.26"/>
<polygon fill="black" stroke="black" points="133.56,-108.1 141.9,-115.23 135.7,-112.63 137.83,-117.15 137.83,-117.15 137.83,-117.15 135.7,-112.63 133.76,-119.07 133.56,-108.1 133.56,-108.1"/>
</g>
<!-- retry_generation -->
<g id="node9" class="node">
<title>retry_generation</title>
<polygon fill="lightblue" stroke="black" points="325,-36 188,-36 188,0 325,0 325,-36"/>
<text text-anchor="middle" x="256.5" y="-14.3" font-family="Times,serif" font-size="14.00">retry_generation</text>
</g>
<!-- check_loop&#45;&gt;retry_generation -->
<g id="edge9" class="edge">
<title>check_loop&#45;&gt;retry_generation</title>
<path fill="none" stroke="black" d="M157.55,-71.88C174.99,-62.55 196.77,-50.92 215.44,-40.94"/>
<polygon fill="black" stroke="black" points="224.33,-36.19 217.63,-44.87 219.92,-38.55 215.51,-40.9 215.51,-40.9 215.51,-40.9 219.92,-38.55 213.39,-36.93 224.33,-36.19 224.33,-36.19"/>
</g>
<!-- complete_workflow -->
<g id="node10" class="node">
<title>complete_workflow</title>
<polygon fill="lightblue" stroke="black" points="170,-36 17,-36 17,0 170,0 170,-36"/>
<text text-anchor="middle" x="93.5" y="-14.3" font-family="Times,serif" font-size="14.00">complete_workflow</text>
</g>
<!-- check_loop&#45;&gt;complete_workflow -->
<g id="edge10" class="edge">
<title>check_loop&#45;&gt;complete_workflow</title>
<path fill="none" stroke="black" d="M117.59,-71.7C113.95,-63.73 109.55,-54.1 105.51,-45.26"/>
<polygon fill="black" stroke="black" points="101.32,-36.1 109.57,-43.33 103.4,-40.65 105.48,-45.2 105.48,-45.2 105.48,-45.2 103.4,-40.65 101.38,-47.07 101.32,-36.1 101.32,-36.1"/>
</g>
<!-- retry_generation&#45;&gt;generator_agent -->
<g id="edge11" class="edge">
<title>retry_generation&#45;&gt;generator_agent</title>
<path fill="none" stroke="black" d="M256.5,-36.05C256.5,-62.71 256.5,-115.89 256.5,-161 256.5,-379 256.5,-379 256.5,-379 256.5,-419.45 253.92,-431.03 237.5,-468 233.21,-477.67 227,-487.33 220.8,-495.74"/>
<polygon fill="black" stroke="black" points="214.66,-503.7 217.2,-493.03 217.72,-499.74 220.77,-495.78 220.77,-495.78 220.77,-495.78 217.72,-499.74 224.33,-498.53 214.66,-503.7 214.66,-503.7"/>
</g>
</g>
</svg>
